<?xml version="1.0" encoding="UTF-8" standalone="no"?>
<!-- Created with Inkscape (http://www.inkscape.org/) -->

<svg
   sodipodi:docname="emd.svg"
   id="svg125"
   version="1.1"
   viewBox="0 0 150.1436 40.5"
   height="40.5mm"
   width="150.1436mm"
   inkscape:version="1.2.2 (b0a8486541, 2022-12-01)"
   xmlns:inkscape="http://www.inkscape.org/namespaces/inkscape"
   xmlns:sodipodi="http://sodipodi.sourceforge.net/DTD/sodipodi-0.dtd"
   xmlns="http://www.w3.org/2000/svg"
   xmlns:svg="http://www.w3.org/2000/svg">
  <sodipodi:namedview
     id="namedview127"
     pagecolor="#ffffff"
     bordercolor="#000000"
     borderopacity="0.25"
     inkscape:showpageshadow="2"
     inkscape:pageopacity="0.0"
     inkscape:pagecheckerboard="0"
     inkscape:deskcolor="#d1d1d1"
     inkscape:document-units="mm"
     showgrid="false"
     inkscape:zoom="0.69308361"
     inkscape:cx="246.72348"
     inkscape:cy="274.85861"
     inkscape:window-width="1819"
     inkscape:window-height="826"
     inkscape:window-x="0"
     inkscape:window-y="0"
     inkscape:window-maximized="0"
     inkscape:current-layer="layer1" />
  <defs
     id="defs122">
    <clipPath
       id="clipPath5725">
      <rect
         style="fill:#aa8800;stroke-width:0.264583"
         width="92.8582"
         height="45.889229"
         x="59.656002"
         y="32.392399"
         id="rect5524" />
    </clipPath>
  </defs>
  <g
     inkscape:label="Layer 1"
     inkscape:groupmode="layer"
     id="layer1"
     style="display:inline"
     transform="translate(-28.440231,-100)">
    <path
       style="fill:none;stroke:#000000;stroke-width:0.5;stroke-linecap:butt;stroke-linejoin:miter;stroke-dasharray:none;stroke-opacity:1"
       d="M 28.440231,140.25 H 178.44023 Z"
       id="path2621" />
    <path
       style="fill:#005baa;fill-opacity:1;stroke-width:0.264583"
       d="m 59.656,78.2816 h 92.8582 m -46.4292,0 V 32.3924 M 59.656,78.2816 v -0.0045 c 4.4218,-0.0078 8.8436,0.0871 13.2655,-0.3665 4.4218,-0.4536 8.8436,-1.4928 13.2654,-6.6393 4.4218,-5.1464 8.8437,-15.9934 13.2655,-23.4604 4.4216,-7.4669 8.8436,-7.4575 13.2656,0 4.422,7.4575 8.843,18.3061 13.265,23.4604 4.422,5.1544 8.844,6.1842 13.266,6.6393 4.422,0.4551 8.843,0.3587 13.265,0.3665 v 0.0045"
       title="(1/sqrt(2*pi))*exp(-1*(pow(x,2)))"
       clip-path="url(#clipPath5725)"
       id="path5583"
       transform="matrix(1.6153663,0,0,0.87166479,-67.782465,71.764687)" />
  </g>
</svg>
