<?xml version="1.0" encoding="UTF-8" standalone="no"?>
<!-- Created with Inkscape (http://www.inkscape.org/) -->

<svg
   sodipodi:docname="two_cont_dist_div.svg"
   id="svg125"
   version="1.1"
   viewBox="0 0 150.1436 40.5"
   height="40.5mm"
   width="150.1436mm"
   inkscape:version="1.2.2 (b0a8486541, 2022-12-01)"
   xmlns:inkscape="http://www.inkscape.org/namespaces/inkscape"
   xmlns:sodipodi="http://sodipodi.sourceforge.net/DTD/sodipodi-0.dtd"
   xmlns="http://www.w3.org/2000/svg"
   xmlns:svg="http://www.w3.org/2000/svg">
  <sodipodi:namedview
     id="namedview127"
     pagecolor="#ffffff"
     bordercolor="#000000"
     borderopacity="0.25"
     inkscape:showpageshadow="2"
     inkscape:pageopacity="0.0"
     inkscape:pagecheckerboard="0"
     inkscape:deskcolor="#d1d1d1"
     inkscape:document-units="mm"
     showgrid="false"
     inkscape:zoom="1.9603365"
     inkscape:cx="243.07052"
     inkscape:cy="46.930719"
     inkscape:window-width="1896"
     inkscape:window-height="987"
     inkscape:window-x="0"
     inkscape:window-y="0"
     inkscape:window-maximized="1"
     inkscape:current-layer="g68" />
  <defs
     id="defs122">
    <marker
       markerWidth="25.285856"
       markerHeight="25.285856"
       refX="0.5"
       refY="24.799999"
       orient="auto"
       id="Pencil"
       viewBox="0 0 25.285857 25.285857"
       preserveAspectRatio="xMidYMid"
       inkscape:isstock="true"
       inkscape:collect="always">
      <g
         id="g129150"
         transform="rotate(-45,9.8960744,24.301623)">
        <path
           style="fill:#ffeadb;fill-opacity:1;stroke:none;stroke-width:0.9;stroke-linejoin:round;stroke-miterlimit:4;stroke-dasharray:none"
           d="M 11.395811,16.291204 2.8389018,18 11.281989,13.379712 Z"
           id="path129102"
           sodipodi:nodetypes="cccc" />
        <path
           id="path129104"
           style="fill:context-stroke;fill-opacity:1;stroke:none"
           d="m 11.8654,20 h 14.2415 v 3 H 11.8654 c -0.96644,-0.984185 -0.960953,-2.091292 0,-3 z"
           sodipodi:nodetypes="ccccc" />
        <path
           id="path129106"
           style="fill:context-stroke;stroke:#000000;stroke-width:0"
           d="M 11.80696,16 H 26.1069 v 4 H 11.80696 c -1.211769,-1.198221 -1.221718,-2.780057 0,-4 z"
           sodipodi:nodetypes="ccccc" />
        <path
           style="fill:#ffdbc2;fill-opacity:1;stroke:none;stroke-width:0.9;stroke-linejoin:round;stroke-miterlimit:4;stroke-dasharray:none"
           d="M 10.8389,18 H 2.8389018 L 11.8389,15.8 Z"
           id="path129108"
           sodipodi:nodetypes="cccc" />
        <path
           style="fill:#f5ad7a;fill-opacity:1;stroke:none;stroke-width:0.9;stroke-linejoin:round;stroke-miterlimit:4;stroke-dasharray:none"
           d="M 11.079475,22.569659 2.8389018,18 11.585758,19.873429 Z"
           id="path129110"
           sodipodi:nodetypes="cccc" />
        <path
           style="fill:#fcc39c;fill-opacity:1;stroke:none;stroke-width:0.9;stroke-linejoin:round;stroke-miterlimit:4;stroke-dasharray:none"
           d="M 11.8389,20.2 2.8389018,18 10.8389,17.8 Z"
           id="path129112"
           sodipodi:nodetypes="cccc" />
        <path
           id="path129114"
           style="fill:context-stroke;fill-opacity:1;stroke:#000000;stroke-width:0"
           d="M 11.85202,13 H 26.1069 v 3 H 11.85202 c -1.047549,-0.941426 -0.993936,-2.069912 0,-3 z"
           sodipodi:nodetypes="ccccc" />
        <path
           style="fill:none;fill-opacity:1;stroke:#000000;stroke-width:0.9;stroke-linejoin:round;stroke-miterlimit:4;stroke-dasharray:none"
           d="M 11.8389,23 2.8389018,18 11.8389,13"
           id="path129116"
           sodipodi:nodetypes="ccc" />
        <path
           id="path129118"
           style="fill:none;stroke:#000000;stroke-width:0.9;stroke-linejoin:round;stroke-miterlimit:4;stroke-dasharray:none"
           d="M 11.80696,16 H 26.1069 v 4 H 11.80696 c -1.211769,-1.198221 -1.221718,-2.780057 0,-4 z"
           sodipodi:nodetypes="ccccc" />
        <path
           style="fill:#000000;fill-opacity:1;stroke:none;stroke-width:0.9;stroke-linejoin:round;stroke-miterlimit:4;stroke-dasharray:none"
           d="m 5.8389018,19.66663 -3,-1.66663 3,-1.66663 z"
           id="path129120"
           sodipodi:nodetypes="cccc" />
        <path
           id="path129122"
           style="opacity:0.480349;fill:#ffffff;fill-opacity:1;stroke:none;stroke-width:0.9;stroke-linejoin:round;stroke-miterlimit:4;stroke-dasharray:none"
           d="M 11.801044,13 H 25.1069 v 3 H 11.801044 c -0.977808,-0.941426 -0.927764,-2.069912 0,-3 z"
           sodipodi:nodetypes="ccccc" />
        <path
           id="path129124"
           style="opacity:0.349345;fill:#000000;fill-opacity:1;stroke:none;stroke-width:0.899999;stroke-linejoin:round;stroke-miterlimit:4;stroke-dasharray:none"
           d="m 11.8171,20 h 13.2898 v 3 H 11.8171 c -0.901857,-0.984185 -0.896736,-2.091292 0,-3 z"
           sodipodi:nodetypes="ccccc" />
        <path
           id="path129126"
           style="fill:none;fill-opacity:1;stroke:#000000;stroke-width:0.899999;stroke-linejoin:round;stroke-miterlimit:4;stroke-dasharray:none"
           d="m 11.8654,20 h 14.2415 v 3 H 11.8654 c -0.96644,-0.984185 -0.960953,-2.091292 0,-3 z"
           sodipodi:nodetypes="ccccc" />
        <rect
           style="fill:#ff5555;fill-opacity:1;stroke:none;stroke-width:0.9;stroke-linejoin:round;stroke-miterlimit:4;stroke-dasharray:none"
           id="rect129128"
           width="7"
           height="10"
           x="26.5"
           y="13"
           ry="2"
           rx="2" />
        <path
           id="path129130"
           style="fill:#ffffff;fill-opacity:0.18;stroke-width:0.9;stroke-linejoin:round"
           d="m 29,13 h 3.768096 l 0.695712,3 H 29 Z"
           sodipodi:nodetypes="ccccc" />
        <path
           id="path129132"
           style="fill-opacity:0.157303;stroke-width:0.9;stroke-linejoin:round"
           d="m 29,20 h 4.521784 l -0.927616,3 H 29 Z"
           sodipodi:nodetypes="ccccc" />
        <rect
           style="fill:none;fill-opacity:1;stroke:#000000;stroke-width:0.9;stroke-linejoin:round;stroke-miterlimit:4;stroke-dasharray:none"
           id="rect129134"
           width="7"
           height="10"
           x="26.5"
           y="13"
           ry="2"
           rx="2" />
        <path
           id="path129136"
           style="fill:none;fill-opacity:1;stroke:#000000;stroke-width:0.899999;stroke-linejoin:round;stroke-miterlimit:4;stroke-dasharray:none"
           d="m 11.8654,13 h 14.2415 v 3 H 11.8654 c -0.96644,-0.984185 -0.960953,-2.091292 0,-3 z"
           sodipodi:nodetypes="ccccc" />
        <g
           id="g129148"
           transform="translate(-2,-10)">
          <rect
             style="fill:#b3b3b3;fill-opacity:1;stroke:none;stroke-width:0.9;stroke-linejoin:round;stroke-miterlimit:4;stroke-dasharray:none"
             id="rect129138"
             width="5"
             height="3"
             x="26"
             y="30" />
          <rect
             style="fill:#cccccc;fill-opacity:1;stroke:none;stroke-width:0.899999;stroke-linejoin:round;stroke-miterlimit:4;stroke-dasharray:none"
             id="rect129140"
             width="5"
             height="2.5"
             x="26"
             y="28" />
          <rect
             style="fill:#e6e6e6;fill-opacity:1;stroke:none;stroke-width:0.9;stroke-linejoin:round;stroke-miterlimit:4;stroke-dasharray:none"
             id="rect129142"
             width="5"
             height="3"
             x="26"
             y="25" />
          <rect
             style="fill:#f9f9f9;fill-opacity:1;stroke:none;stroke-width:0.899999;stroke-linejoin:round;stroke-miterlimit:4;stroke-dasharray:none"
             id="rect129144"
             width="5"
             height="2.5"
             x="26"
             y="23" />
          <rect
             style="fill:none;fill-opacity:1;stroke:#000000;stroke-width:0.9;stroke-linejoin:round;stroke-miterlimit:4;stroke-dasharray:none"
             id="rect129146"
             width="5"
             height="10"
             x="26"
             y="22.999996" />
        </g>
      </g>
    </marker>
    <marker
       style="overflow:visible"
       id="marker1411"
       refX="0"
       refY="0"
       orient="auto-start-reverse"
       inkscape:stockid="TriangleStart"
       markerWidth="5.3244081"
       markerHeight="6.155385"
       viewBox="0 0 5.3244081 6.1553851"
       inkscape:isstock="true"
       inkscape:collect="always"
       preserveAspectRatio="xMidYMid">
      <path
         transform="scale(0.5)"
         style="fill:context-stroke;fill-rule:evenodd;stroke:context-stroke;stroke-width:1pt"
         d="M 5.77,0 -2.88,5 V -5 Z"
         id="path1409" />
    </marker>
    <marker
       style="overflow:visible"
       id="TriangleStart"
       refX="0"
       refY="0"
       orient="auto-start-reverse"
       inkscape:stockid="TriangleStart"
       markerWidth="5.3244081"
       markerHeight="6.155385"
       viewBox="0 0 5.3244081 6.1553851"
       inkscape:isstock="true"
       inkscape:collect="always"
       preserveAspectRatio="xMidYMid">
      <path
         transform="scale(0.5)"
         style="fill:context-stroke;fill-rule:evenodd;stroke:context-stroke;stroke-width:1pt"
         d="M 5.77,0 -2.88,5 V -5 Z"
         id="path135" />
    </marker>
    <clipPath
       id="clipPath5725">
      <rect
         style="fill:#aa8800;stroke-width:0.264583"
         width="92.8582"
         height="45.889229"
         x="59.656002"
         y="32.392399"
         id="rect5524" />
    </clipPath>
    <clipPath
       id="clipPath5725-3">
      <rect
         style="fill:#aa8800;stroke-width:0.264583"
         width="92.8582"
         height="45.889229"
         x="59.656002"
         y="32.392399"
         id="rect5524-6" />
    </clipPath>
    <clipPath
       id="clipPath1292">
      <path
         clip-rule="nonzero"
         d="M 6,0 H 9 V 9.964844 H 6 Z m 0,0"
         id="path1418" />
    </clipPath>
    <clipPath
       id="clipPath9621">
      <path
         clip-rule="nonzero"
         d="M 9,0 H 19 V 9.964844 H 9 Z m 0,0"
         id="path9163" />
    </clipPath>
    <clipPath
       id="clipPath2915">
      <path
         clip-rule="nonzero"
         d="m 29,0 h 3 v 9.964844 h -3 z m 0,0"
         id="path8281" />
    </clipPath>
    <clipPath
       id="clipPath8383">
      <path
         clip-rule="nonzero"
         d="m 10,0 h 5 v 17.1875 h -5 z m 0,0"
         id="path7488" />
    </clipPath>
    <clipPath
       id="clipPath3962">
      <path
         clip-rule="nonzero"
         d="m 49,0 h 5 v 17.1875 h -5 z m 0,0"
         id="path7121" />
    </clipPath>
  </defs>
  <g
     inkscape:label="Layer 1"
     inkscape:groupmode="layer"
     id="layer1"
     style="display:inline"
     transform="translate(-28.4402, -100)">
    <path
       style="fill:none;stroke:#000000;stroke-width:0.5;stroke-linecap:butt;stroke-linejoin:miter;stroke-dasharray:none;stroke-opacity:1"
       d="M 28.440231,140.25 H 178.44023 Z"
       id="path2621" />
    <path
       style="fill:#005baa;fill-opacity:1;stroke-width:0.264583"
       d="m 59.656,78.2816 h 92.8582 m -46.4292,0 V 32.3924 M 59.656,78.2816 v -0.0045 c 4.4218,-0.0078 8.8436,0.0871 13.2655,-0.3665 4.4218,-0.4536 8.8436,-1.4928 13.2654,-6.6393 4.4218,-5.1464 8.8437,-15.9934 13.2655,-23.4604 4.4216,-7.4669 8.8436,-7.4575 13.2656,0 4.422,7.4575 8.843,18.3061 13.265,23.4604 4.422,5.1544 8.844,6.1842 13.266,6.6393 4.422,0.4551 8.843,0.3587 13.265,0.3665 v 0.0045"
       title="(1/sqrt(2*pi))*exp(-1*(pow(x,2)))"
       clip-path="url(#clipPath5725)"
       id="path5583"
       transform="matrix(0.80768313,0,0,0.87166479,-19.742915,71.764687)" />
    <path
       style="display:inline;fill:#ff2a2a;fill-opacity:1;stroke-width:0.264583"
       d="m 59.656,78.2816 h 92.8582 m -46.4292,0 V 32.3924 M 59.656,78.2816 v -0.0045 c 4.4218,-0.0078 8.8436,0.0871 13.2655,-0.3665 4.4218,-0.4536 8.8436,-1.4928 13.2654,-6.6393 4.4218,-5.1464 8.8437,-15.9934 13.2655,-23.4604 4.4216,-7.4669 8.8436,-7.4575 13.2656,0 4.422,7.4575 8.843,18.3061 13.265,23.4604 4.422,5.1544 8.844,6.1842 13.266,6.6393 4.422,0.4551 8.843,0.3587 13.265,0.3665 v 0.0045"
       title="(1/sqrt(2*pi))*exp(-1*(pow(x,2)))"
       clip-path="url(#clipPath5725-3)"
       id="path5583-7"
       transform="matrix(0.80768313,0,0,0.87166479,55.257085,71.764685)" />
    <path
       style="fill:none;fill-rule:evenodd;stroke:#000000;stroke-width:0.264583px;stroke-linecap:butt;stroke-linejoin:miter;stroke-opacity:1"
       d="m 65.940231,120 v 0"
       id="path341"
       inkscape:connector-type="polyline"
       inkscape:connector-curvature="0"
       inkscape:connection-start="#path5583"
       inkscape:connection-end="#path5583" />
    <path
       style="fill:#ff2a2a;stroke-width:0.264583"
       d="M 124.8751,119.09802 Z"
       id="path511" />
    <path
       style="fill:#000000;stroke:#000000;stroke-width:1;stroke-dasharray:none;stroke-opacity:1;marker-start:url(#TriangleStart);marker-end:url(#marker1411);marker-mid:url(#Pencil)"
       d="M 84.249634,116.66859 H 124.87511"
       id="path513" />
    <g
       inkscape:label=""
       transform="translate(90.9402,106.5)"
       id="g5473">
      <g
         fill="#000000"
         fill-opacity="1"
         id="g40"
         transform="matrix(0.352778,0,0,0.352778,-0.242535,-0.00224907)">
        <g
           id="use38"
           transform="translate(0,12.897)">
          <path
             d="m 8.65625,-11.515625 c 0.015625,-0.07813 0.0625,-0.171875 0.0625,-0.265625 0,-0.171875 -0.171875,-0.171875 -0.21875,-0.171875 -0.015625,0 -0.859375,0.07813 -0.9375,0.09375 -0.296875,0.01563 -0.546875,0.04687 -0.859375,0.0625 -0.4375,0.03125 -0.5625,0.04687 -0.5625,0.359375 0,0.171875 0.140625,0.171875 0.390625,0.171875 0.84375,0 0.859375,0.15625 0.859375,0.328125 0,0.109375 -0.03125,0.25 -0.0625,0.296875 l -1.046875,4.1875 C 6.09375,-6.90625 5.625,-7.59375 4.734375,-7.59375 c -1.9375,0 -4.046875,2.515625 -4.046875,5.0625 0,1.703125 1,2.703125 2.171875,2.703125 0.953125,0 1.75,-0.734375 2.234375,-1.3125 0.171875,1.015625 0.984375,1.3125 1.5,1.3125 0.515625,0 0.9375,-0.3125 1.234375,-0.921875 C 8.109375,-1.34375 8.34375,-2.390625 8.34375,-2.46875 8.34375,-2.546875 8.28125,-2.625 8.171875,-2.625 8.03125,-2.625 8,-2.53125 7.9375,-2.265625 7.671875,-1.25 7.359375,-0.171875 6.640625,-0.171875 c -0.5,0 -0.53125,-0.453125 -0.53125,-0.796875 0,-0.0625 0,-0.421875 0.125,-0.90625 z M 5.1875,-2.046875 C 5.09375,-1.75 5.09375,-1.71875 4.859375,-1.390625 c -0.375,0.484375 -1.140625,1.21875 -1.953125,1.21875 -0.703125,0 -1.09375,-0.640625 -1.09375,-1.65625 0,-0.9375 0.53125,-2.875 0.859375,-3.59375 C 3.25,-6.625 4.0625,-7.25 4.734375,-7.25 c 1.140625,0 1.359375,1.40625 1.359375,1.546875 0,0.015625 -0.046875,0.25 -0.0625,0.28125 z m 0,0"
             id="path74" />
        </g>
      </g>
      <g
         clip-path="url(#clipPath8383)"
         id="g46"
         transform="matrix(0.352778,0,0,0.352778,-0.242535,-0.00224907)">
        <g
           fill="#000000"
           fill-opacity="1"
           id="g44">
          <g
             id="use42"
             transform="translate(8.7589998,12.897)">
            <path
               d="m 5.265625,4.203125 c 0,-0.015625 0,-0.046875 -0.046875,-0.109375 -0.796875,-0.8125 -2.90625,-3.015625 -2.90625,-8.375 0,-5.375 2.078125,-7.5625 2.921875,-8.421875 0,-0.01563 0.03125,-0.0625 0.03125,-0.109375 0,-0.04687 -0.046875,-0.07813 -0.125,-0.07813 -0.1875,0 -1.640625,1.265625 -2.484375,3.15625 -0.859375,1.921875 -1.109375,3.78125 -1.109375,5.421875 0,1.25 0.125,3.34375 1.15625,5.5625 0.828125,1.796875 2.234375,3.0625 2.4375,3.0625 0.09375,0 0.125,-0.046875 0.125,-0.109375 z m 0,0"
               id="path78" />
          </g>
        </g>
      </g>
      <g
         fill="#000000"
         fill-opacity="1"
         id="g52"
         transform="matrix(0.352778,0,0,0.352778,-0.242535,-0.00224907)"
         style="fill:#005baa;fill-opacity:1">
        <g
           id="use48"
           transform="translate(14.856,12.897)"
           style="fill:#005baa;fill-opacity:1">
          <path
             d="M 2.921875,-1.90625 C 2.328125,-0.890625 1.734375,-0.546875 0.90625,-0.5 0.71875,-0.484375 0.578125,-0.484375 0.578125,-0.171875 0.578125,-0.0625 0.671875,0 0.796875,0 1.109375,0 1.875,-0.03125 2.1875,-0.03125 2.6875,-0.03125 3.234375,0 3.71875,0 3.828125,0 4.03125,0 4.03125,-0.328125 4.03125,-0.484375 3.890625,-0.5 3.78125,-0.5 3.390625,-0.53125 3.0625,-0.671875 3.0625,-1.078125 c 0,-0.25 0.109375,-0.4375 0.328125,-0.8125 L 4.703125,-4.0625 H 9.09375 c 0.015625,0.15625 0.015625,0.296875 0.03125,0.453125 0.046875,0.4375 0.265625,2.234375 0.265625,2.5625 C 9.390625,-0.53125 8.5,-0.5 8.234375,-0.5 c -0.1875,0 -0.375,0 -0.375,0.3125 C 7.859375,0 8,0 8.109375,0 8.40625,0 8.75,-0.03125 9.046875,-0.03125 h 0.96875 c 1.0625,0 1.8125,0.03125 1.828125,0.03125 0.125,0 0.3125,0 0.3125,-0.328125 C 12.15625,-0.5 12,-0.5 11.75,-0.5 c -0.953125,0 -0.96875,-0.15625 -1.015625,-0.671875 l -1.0625,-10.75 c -0.03125,-0.34375 -0.09375,-0.375 -0.28125,-0.375 -0.171875,0 -0.28125,0.03125 -0.4375,0.296875 z M 5,-4.5625 l 3.453125,-5.78125 0.59375,5.78125 z m 0,0"
             id="path82"
             style="fill:#005baa;fill-opacity:1" />
        </g>
        <g
           id="use50"
           transform="translate(27.492104,12.897)"
           style="fill:#005baa;fill-opacity:1">
          <path
             d="m 3.359375,0.0625 c 0,-1 -0.328125,-1.734375 -1.03125,-1.734375 C 1.78125,-1.671875 1.5,-1.21875 1.5,-0.84375 1.5,-0.46875 1.75,0 2.34375,0 2.5625,0 2.75,-0.0625 2.90625,-0.21875 c 0.03125,-0.046875 0.0625,-0.046875 0.078125,-0.046875 0.03125,0 0.03125,0.25 0.03125,0.328125 0,0.578125 -0.109375,1.6875 -1.109375,2.8125 -0.1875,0.203125 -0.1875,0.234375 -0.1875,0.28125 0,0.078125 0.09375,0.171875 0.171875,0.171875 0.140625,0 1.46875,-1.28125 1.46875,-3.265625 z m 0,0"
             id="path86"
             style="fill:#005baa;fill-opacity:1" />
        </g>
      </g>
      <g
         fill="#000000"
         fill-opacity="1"
         id="g56"
         transform="matrix(0.352778,0,0,0.352778,-0.242535,-0.00224907)"
         style="fill:#ff2a2a;fill-opacity:1">
        <g
           id="use54"
           transform="translate(35.049664,12.897)"
           style="fill:#ff2a2a;fill-opacity:1">
          <path
             d="m 6.296875,-10.59375 c 0.15625,-0.640625 0.234375,-0.671875 0.90625,-0.671875 H 9.4375 c 1.9375,0 1.9375,1.65625 1.9375,1.8125 0,1.390625 -1.390625,3.171875 -3.65625,3.171875 H 5.234375 Z m 2.921875,4.453125 c 1.875,-0.34375 3.578125,-1.65625 3.578125,-3.25 0,-1.34375 -1.1875,-2.375 -3.140625,-2.375 H 4.125 c -0.3125,0 -0.46875,0 -0.46875,0.328125 0,0.171875 0.15625,0.171875 0.40625,0.171875 1.046875,0 1.046875,0.140625 1.046875,0.328125 0,0.03125 0,0.140625 -0.0625,0.40625 l -2.328125,9.25 C 2.5625,-0.671875 2.53125,-0.5 1.328125,-0.5 c -0.328125,0 -0.5,0 -0.5,0.3125 C 0.828125,0 0.9375,0 1.28125,0 H 7.1875 c 2.625,0 4.65625,-2 4.65625,-3.734375 0,-1.40625 -1.234375,-2.28125 -2.625,-2.40625 z M 6.765625,-0.5 H 4.4375 c -0.234375,0 -0.265625,0 -0.375,-0.015625 C 3.875,-0.53125 3.859375,-0.5625 3.859375,-0.703125 c 0,-0.125 0.03125,-0.234375 0.0625,-0.375 L 5.125,-5.9375 h 3.25 c 2.03125,0 2.03125,1.890625 2.03125,2.03125 0,1.65625 -1.5,3.40625 -3.640625,3.40625 z m 0,0"
             id="path90"
             style="fill:#ff2a2a;fill-opacity:1" />
        </g>
      </g>
      <g
         clip-path="url(#clipPath3962)"
         id="g62"
         transform="matrix(0.352778,0,0,0.352778,-0.242535,-0.00224907)">
        <g
           fill="#000000"
           fill-opacity="1"
           id="g60">
          <g
             id="use58"
             transform="translate(48.717999,12.897)">
            <path
               d="m 4.53125,-4.28125 c 0,-1.25 -0.125,-3.34375 -1.15625,-5.5625 -0.828125,-1.796875 -2.234375,-3.046875 -2.4375,-3.046875 -0.0625,0 -0.125,0.01563 -0.125,0.09375 0,0.03125 0.015625,0.0625 0.03125,0.09375 0.828125,0.859375 2.921875,3.046875 2.921875,8.390625 0,5.375 -2.078125,7.5625 -2.921875,8.421875 C 0.828125,4.15625 0.8125,4.171875 0.8125,4.203125 0.8125,4.28125 0.875,4.3125 0.9375,4.3125 1.125,4.3125 2.578125,3.03125 3.421875,1.140625 4.28125,-0.78125 4.53125,-2.640625 4.53125,-4.28125 Z m 0,0"
               id="path94" />
          </g>
        </g>
      </g>
      <g
         fill="#000000"
         fill-opacity="1"
         id="g68"
         transform="matrix(0.352778,0,0,0.352778,-0.242535,-0.00224907)">
        <g
           id="use64"
           transform="translate(56.599856,12.897)">
          <path
             d="m 11.078125,-5.53125 c 0.25,0 0.515625,0 0.515625,-0.28125 C 11.59375,-6.125 11.296875,-6.125 11,-6.125 H 1.375 c -0.296875,0 -0.578125,0 -0.578125,0.3125 0,0.28125 0.25,0.28125 0.515625,0.28125 z M 11,-2.46875 c 0.296875,0 0.59375,0 0.59375,-0.296875 0,-0.296875 -0.265625,-0.296875 -0.515625,-0.296875 H 1.3125 c -0.265625,0 -0.515625,0 -0.515625,0.296875 0,0.296875 0.28125,0.296875 0.578125,0.296875 z m 0,0"
             id="path98" />
        </g>
        <g
           id="use66"
           transform="translate(71.991501,12.897)">
          <path
             d="m 3.640625,-3.875 c 0,-1.625 0.8125,-3.046875 2.0625,-4.03125 C 6.03125,-8.140625 6.625,-8.625 6.625,-9.71875 c 0,-1.390625 -1.046875,-2.375 -3.078125,-2.375 -1.71875,0 -2.75,1.1875 -2.75,2.328125 0,0.671875 0.5625,0.671875 0.609375,0.671875 0.1875,0 0.625,-0.125 0.625,-0.625 0,-0.421875 -0.328125,-0.609375 -0.625,-0.609375 -0.0625,0 -0.15625,0.01563 -0.203125,0.03125 C 1.5625,-11.375 2.59375,-11.8125 3.515625,-11.8125 c 2,0 2.015625,1.375 2.015625,2.015625 0,1.046875 -0.328125,1.40625 -0.65625,1.75 C 3.734375,-6.8125 3.328125,-5.203125 3.328125,-3.9375 v 0.671875 c 0,0.28125 0,0.359375 0.15625,0.359375 0.15625,0 0.15625,-0.078125 0.15625,-0.359375 z M 4.1875,-0.703125 c 0,-0.375 -0.3125,-0.703125 -0.703125,-0.703125 -0.390625,0 -0.71875,0.296875 -0.71875,0.703125 0,0.375 0.3125,0.703125 0.71875,0.703125 0.375,0 0.703125,-0.3125 0.703125,-0.703125 z m 0,0"
             id="path102" />
        </g>
      </g>
    </g>
  </g>
</svg>
